<svg width="79" height="84" viewBox="0 0 79 84" fill="none" xmlns="http://www.w3.org/2000/svg">
<circle cx="39" cy="46" r="33.5" stroke="#4C9C2E" stroke-dasharray="1 2"/>
<circle cx="39" cy="46" r="37.5" stroke="#4C9C2E" stroke-dasharray="1 2"/>
<path d="M26.3784 29.2V38H24.3419V30.8343H22.5819V29.2H26.3784ZM31.6786 38.1509C30.9494 38.1509 30.2999 37.9707 29.73 37.6103C29.1601 37.2499 28.7117 36.7303 28.3849 36.0514C28.0664 35.3642 27.9071 34.547 27.9071 33.6C27.9071 32.653 28.0664 31.84 28.3849 31.1611C28.7117 30.4739 29.1601 29.9501 29.73 29.5897C30.2999 29.2293 30.9494 29.0491 31.6786 29.0491C32.4077 29.0491 33.0572 29.2293 33.6271 29.5897C34.197 29.9501 34.6412 30.4739 34.9597 31.1611C35.2866 31.84 35.45 32.653 35.45 33.6C35.45 34.547 35.2866 35.3642 34.9597 36.0514C34.6412 36.7303 34.197 37.2499 33.6271 37.6103C33.0572 37.9707 32.4077 38.1509 31.6786 38.1509ZM31.6786 36.4286C32.2149 36.4286 32.634 36.1981 32.9357 35.7371C33.2458 35.2762 33.4009 34.5638 33.4009 33.6C33.4009 32.6362 33.2458 31.9238 32.9357 31.4629C32.634 31.0019 32.2149 30.7714 31.6786 30.7714C31.1506 30.7714 30.7315 31.0019 30.4214 31.4629C30.1197 31.9238 29.9689 32.6362 29.9689 33.6C29.9689 34.5638 30.1197 35.2762 30.4214 35.7371C30.7315 36.1981 31.1506 36.4286 31.6786 36.4286ZM40.2109 38.1509C39.4818 38.1509 38.8323 37.9707 38.2624 37.6103C37.6925 37.2499 37.2441 36.7303 36.9172 36.0514C36.5987 35.3642 36.4395 34.547 36.4395 33.6C36.4395 32.653 36.5987 31.84 36.9172 31.1611C37.2441 30.4739 37.6925 29.9501 38.2624 29.5897C38.8323 29.2293 39.4818 29.0491 40.2109 29.0491C40.9401 29.0491 41.5896 29.2293 42.1595 29.5897C42.7294 29.9501 43.1736 30.4739 43.4921 31.1611C43.8189 31.84 43.9824 32.653 43.9824 33.6C43.9824 34.547 43.8189 35.3642 43.4921 36.0514C43.1736 36.7303 42.7294 37.2499 42.1595 37.6103C41.5896 37.9707 40.9401 38.1509 40.2109 38.1509ZM40.2109 36.4286C40.7473 36.4286 41.1664 36.1981 41.4681 35.7371C41.7782 35.2762 41.9332 34.5638 41.9332 33.6C41.9332 32.6362 41.7782 31.9238 41.4681 31.4629C41.1664 31.0019 40.7473 30.7714 40.2109 30.7714C39.6829 30.7714 39.2639 31.0019 38.9538 31.4629C38.6521 31.9238 38.5012 32.6362 38.5012 33.6C38.5012 34.5638 38.6521 35.2762 38.9538 35.7371C39.2639 36.1981 39.6829 36.4286 40.2109 36.4286ZM47.0084 33.952C46.3631 33.952 45.8351 33.7341 45.4244 33.2983C45.0222 32.8541 44.821 32.2632 44.821 31.5257C44.821 30.7882 45.0222 30.2015 45.4244 29.7657C45.8351 29.3215 46.3631 29.0994 47.0084 29.0994C47.6538 29.0994 48.1776 29.3215 48.5799 29.7657C48.9822 30.2015 49.1833 30.7882 49.1833 31.5257C49.1833 32.2632 48.9822 32.8541 48.5799 33.2983C48.1776 33.7341 47.6538 33.952 47.0084 33.952ZM52.2507 29.2H53.7467L47.7376 38H46.2416L52.2507 29.2ZM47.0084 32.9211C47.2934 32.9211 47.5155 32.8038 47.6747 32.5691C47.8423 32.3345 47.9262 31.9867 47.9262 31.5257C47.9262 31.0648 47.8423 30.717 47.6747 30.4823C47.5155 30.2476 47.2934 30.1303 47.0084 30.1303C46.7319 30.1303 46.5098 30.2518 46.3422 30.4949C46.1745 30.7295 46.0907 31.0731 46.0907 31.5257C46.0907 31.9783 46.1745 32.3261 46.3422 32.5691C46.5098 32.8038 46.7319 32.9211 47.0084 32.9211ZM52.9799 38.1006C52.5608 38.1006 52.1837 38.0042 51.8484 37.8114C51.5216 37.6103 51.266 37.3253 51.0816 36.9566C50.8972 36.5878 50.805 36.1604 50.805 35.6743C50.805 35.1882 50.8972 34.7608 51.0816 34.392C51.266 34.0232 51.5216 33.7425 51.8484 33.5497C52.1837 33.3486 52.5608 33.248 52.9799 33.248C53.6252 33.248 54.149 33.4701 54.5513 33.9143C54.962 34.3501 55.1673 34.9368 55.1673 35.6743C55.1673 36.4118 54.962 37.0027 54.5513 37.4469C54.149 37.8827 53.6252 38.1006 52.9799 38.1006ZM52.9799 37.0697C53.2648 37.0697 53.4869 36.9524 53.6462 36.7177C53.8138 36.4747 53.8976 36.1269 53.8976 35.6743C53.8976 35.2217 53.8138 34.8781 53.6462 34.6434C53.4869 34.4004 53.2648 34.2789 52.9799 34.2789C52.7033 34.2789 52.4812 34.3962 52.3136 34.6309C52.146 34.8655 52.0622 35.2133 52.0622 35.6743C52.0622 36.1352 52.146 36.483 52.3136 36.7177C52.4812 36.9524 52.7033 37.0697 52.9799 37.0697Z" fill="#4A5A0D"/>
<path d="M11.5556 75L10.2056 73.05H10.1256H8.71563V75H7.09563V68H10.1256C10.7456 68 11.2823 68.1033 11.7356 68.31C12.1956 68.5167 12.549 68.81 12.7956 69.19C13.0423 69.57 13.1656 70.02 13.1656 70.54C13.1656 71.06 13.039 71.51 12.7856 71.89C12.539 72.2633 12.1856 72.55 11.7256 72.75L13.2956 75H11.5556ZM11.5256 70.54C11.5256 70.1467 11.399 69.8467 11.1456 69.64C10.8923 69.4267 10.5223 69.32 10.0356 69.32H8.71563V71.76H10.0356C10.5223 71.76 10.8923 71.6533 11.1456 71.44C11.399 71.2267 11.5256 70.9267 11.5256 70.54ZM19.8691 73.7V75H14.4491V68H19.7391V69.3H16.0591V70.82H19.3091V72.08H16.0591V73.7H19.8691ZM27.5781 68V75H26.2481L22.7581 70.75V75H21.1581V68H22.4981L25.9781 72.25V68H27.5781ZM32.6243 75.12C31.8976 75.12 31.241 74.9633 30.6543 74.65C30.0743 74.3367 29.6176 73.9067 29.2843 73.36C28.9576 72.8067 28.7943 72.1867 28.7943 71.5C28.7943 70.8133 28.9576 70.1967 29.2843 69.65C29.6176 69.0967 30.0743 68.6633 30.6543 68.35C31.241 68.0367 31.8976 67.88 32.6243 67.88C33.351 67.88 34.0043 68.0367 34.5843 68.35C35.1643 68.6633 35.621 69.0967 35.9543 69.65C36.2876 70.1967 36.4543 70.8133 36.4543 71.5C36.4543 72.1867 36.2876 72.8067 35.9543 73.36C35.621 73.9067 35.1643 74.3367 34.5843 74.65C34.0043 74.9633 33.351 75.12 32.6243 75.12ZM32.6243 73.74C33.0376 73.74 33.411 73.6467 33.7443 73.46C34.0776 73.2667 34.3376 73 34.5243 72.66C34.7176 72.32 34.8143 71.9333 34.8143 71.5C34.8143 71.0667 34.7176 70.68 34.5243 70.34C34.3376 70 34.0776 69.7367 33.7443 69.55C33.411 69.3567 33.0376 69.26 32.6243 69.26C32.211 69.26 31.8376 69.3567 31.5043 69.55C31.171 69.7367 30.9076 70 30.7143 70.34C30.5276 70.68 30.4343 71.0667 30.4343 71.5C30.4343 71.9333 30.5276 72.32 30.7143 72.66C30.9076 73 31.171 73.2667 31.5043 73.46C31.8376 73.6467 32.211 73.74 32.6243 73.74ZM44.1674 68L41.1374 75H39.5374L36.5174 68H38.2674L40.3974 73L42.5574 68H44.1674ZM49.1275 73.5H45.8775L45.2575 75H43.5975L46.7175 68H48.3175L51.4475 75H49.7475L49.1275 73.5ZM48.6175 72.27L47.5075 69.59L46.3975 72.27H48.6175ZM57.3138 71.36C57.7138 71.4867 58.0271 71.7 58.2538 72C58.4804 72.2933 58.5938 72.6567 58.5938 73.09C58.5938 73.7033 58.3538 74.1767 57.8738 74.51C57.4004 74.8367 56.7071 75 55.7938 75H52.1738V68H55.5938C56.4471 68 57.1004 68.1633 57.5538 68.49C58.0138 68.8167 58.2438 69.26 58.2438 69.82C58.2438 70.16 58.1604 70.4633 57.9938 70.73C57.8338 70.9967 57.6071 71.2067 57.3138 71.36ZM53.7838 69.22V70.87H55.3938C55.7938 70.87 56.0971 70.8 56.3038 70.66C56.5104 70.52 56.6138 70.3133 56.6138 70.04C56.6138 69.7667 56.5104 69.5633 56.3038 69.43C56.0971 69.29 55.7938 69.22 55.3938 69.22H53.7838ZM55.6738 73.78C56.1004 73.78 56.4204 73.71 56.6338 73.57C56.8538 73.43 56.9638 73.2133 56.9638 72.92C56.9638 72.34 56.5338 72.05 55.6738 72.05H53.7838V73.78H55.6738ZM59.8202 68H61.4402V73.68H64.9502V75H59.8202V68ZM71.2754 73.7V75H65.8554V68H71.1454V69.3H67.4654V70.82H70.7154V72.08H67.4654V73.7H71.2754Z" fill="#4A5A0D"/>
<path d="M11.5556 75L9.2065 76.6263L10.0586 77.8571H11.5556V75ZM10.2056 73.05L12.5547 71.4237L11.7026 70.1929H10.2056V73.05ZM8.71563 73.05V70.1929H5.85848V73.05H8.71563ZM8.71563 75V77.8571H11.5728V75H8.71563ZM7.09563 75H4.23848V77.8571H7.09563V75ZM7.09563 68V65.1429H4.23848V68H7.09563ZM11.7356 68.31L10.5505 70.9097L10.5576 70.913L10.5647 70.9162L11.7356 68.31ZM12.7856 71.89L10.4083 70.3051L10.4018 70.315L12.7856 71.89ZM11.7256 72.75L10.5864 70.1298L7.3847 71.5218L9.38252 74.385L11.7256 72.75ZM13.2956 75V77.8571H18.7732L15.6387 73.365L13.2956 75ZM11.1456 69.64L9.30524 71.8255L9.32228 71.8398L9.33955 71.8539L11.1456 69.64ZM8.71563 69.32V66.4629H5.85848V69.32H8.71563ZM8.71563 71.76H5.85848V74.6171H8.71563V71.76ZM11.1456 71.44L12.986 73.6255L12.986 73.6255L11.1456 71.44ZM13.9047 73.3737L12.5547 71.4237L7.8565 74.6763L9.2065 76.6263L13.9047 73.3737ZM10.2056 70.1929H10.1256V75.9071H10.2056V70.1929ZM10.1256 70.1929H8.71563V75.9071H10.1256V70.1929ZM5.85848 73.05V75H11.5728V73.05H5.85848ZM8.71563 72.1429H7.09563V77.8571H8.71563V72.1429ZM9.95277 75V68H4.23848V75H9.95277ZM7.09563 70.8571H10.1256V65.1429H7.09563V70.8571ZM10.1256 70.8571C10.4339 70.8571 10.5485 70.9089 10.5505 70.9097L12.9208 65.7103C12.0161 65.2978 11.0574 65.1429 10.1256 65.1429V70.8571ZM10.5647 70.9162C10.5821 70.924 10.561 70.9168 10.5206 70.8833C10.4785 70.8484 10.4349 70.8008 10.3991 70.7456L15.1921 67.6344C14.6132 66.7425 13.8089 66.1092 12.9065 65.7038L10.5647 70.9162ZM10.3991 70.7456C10.3575 70.6815 10.3313 70.6178 10.3176 70.5677C10.3046 70.5204 10.3085 70.5064 10.3085 70.54H16.0228C16.0228 69.5516 15.782 68.5431 15.1921 67.6344L10.3991 70.7456ZM10.3085 70.54C10.3085 70.5673 10.3053 70.5467 10.3204 70.4934C10.3362 70.4371 10.3651 70.3701 10.4083 70.3051L15.1629 73.4749C15.771 72.5627 16.0228 71.5435 16.0228 70.54H10.3085ZM10.4018 70.315C10.4418 70.2545 10.4898 70.2033 10.5355 70.1663C10.5793 70.1307 10.603 70.1226 10.5864 70.1298L12.8648 75.3702C13.7687 74.9772 14.5818 74.3544 15.1694 73.465L10.4018 70.315ZM9.38252 74.385L10.9525 76.635L15.6387 73.365L14.0687 71.115L9.38252 74.385ZM13.2956 72.1429H11.5556V77.8571H13.2956V72.1429ZM14.3828 70.54C14.3828 69.4811 14.0065 68.2866 12.9517 67.4261L9.33955 71.8539C9.10655 71.6638 8.9172 71.4125 8.79848 71.1313C8.68587 70.8646 8.66848 70.6475 8.66848 70.54H14.3828ZM12.986 67.4545C12.0232 66.6438 10.8884 66.4629 10.0356 66.4629V72.1771C10.1562 72.1771 9.76135 72.2096 9.30524 71.8255L12.986 67.4545ZM10.0356 66.4629H8.71563V72.1771H10.0356V66.4629ZM5.85848 69.32V71.76H11.5728V69.32H5.85848ZM8.71563 74.6171H10.0356V68.9029H8.71563V74.6171ZM10.0356 74.6171C10.8884 74.6171 12.0232 74.4362 12.986 73.6255L9.30524 69.2545C9.76135 68.8704 10.1562 68.9029 10.0356 68.9029V74.6171ZM12.986 73.6255C13.995 72.7758 14.3828 71.6127 14.3828 70.54H8.66848C8.66848 70.4219 8.68823 70.2048 8.79848 69.9437C8.91367 69.6708 9.09301 69.4333 9.30524 69.2545L12.986 73.6255ZM19.8691 73.7H22.7263V70.8429H19.8691V73.7ZM19.8691 75V77.8571H22.7263V75H19.8691ZM14.4491 75H11.592V77.8571H14.4491V75ZM14.4491 68V65.1429H11.592V68H14.4491ZM19.7391 68H22.5963V65.1429H19.7391V68ZM19.7391 69.3V72.1571H22.5963V69.3H19.7391ZM16.0591 69.3V66.4429H13.202V69.3H16.0591ZM16.0591 70.82H13.202V73.6771H16.0591V70.82ZM19.3091 70.82H22.1663V67.9629H19.3091V70.82ZM19.3091 72.08V74.9371H22.1663V72.08H19.3091ZM16.0591 72.08V69.2229H13.202V72.08H16.0591ZM16.0591 73.7H13.202V76.5571H16.0591V73.7ZM17.012 73.7V75H22.7263V73.7H17.012ZM19.8691 72.1429H14.4491V77.8571H19.8691V72.1429ZM17.3063 75V68H11.592V75H17.3063ZM14.4491 70.8571H19.7391V65.1429H14.4491V70.8571ZM16.882 68V69.3H22.5963V68H16.882ZM19.7391 66.4429H16.0591V72.1571H19.7391V66.4429ZM13.202 69.3V70.82H18.9163V69.3H13.202ZM16.0591 73.6771H19.3091V67.9629H16.0591V73.6771ZM16.452 70.82V72.08H22.1663V70.82H16.452ZM19.3091 69.2229H16.0591V74.9371H19.3091V69.2229ZM13.202 72.08V73.7H18.9163V72.08H13.202ZM16.0591 76.5571H19.8691V70.8429H16.0591V76.5571ZM27.5781 68H30.4353V65.1429H27.5781V68ZM27.5781 75V77.8571H30.4353V75H27.5781ZM26.2481 75L24.0401 76.8132L24.8973 77.8571H26.2481V75ZM22.7581 70.75L24.9662 68.9368L19.901 62.7686V70.75H22.7581ZM22.7581 75V77.8571H25.6153V75H22.7581ZM21.1581 75H18.301V77.8571H21.1581V75ZM21.1581 68V65.1429H18.301V68H21.1581ZM22.4981 68L24.7087 66.1899L23.8514 65.1429H22.4981V68ZM25.9781 72.25L23.7675 74.0601L28.8353 80.2492V72.25H25.9781ZM25.9781 68V65.1429H23.121V68H25.9781ZM24.721 68V75H30.4353V68H24.721ZM27.5781 72.1429H26.2481V77.8571H27.5781V72.1429ZM28.4562 73.1868L24.9662 68.9368L20.5501 72.5632L24.0401 76.8132L28.4562 73.1868ZM19.901 70.75V75H25.6153V70.75H19.901ZM22.7581 72.1429H21.1581V77.8571H22.7581V72.1429ZM24.0153 75V68H18.301V75H24.0153ZM21.1581 70.8571H22.4981V65.1429H21.1581V70.8571ZM20.2875 69.8101L23.7675 74.0601L28.1887 70.4399L24.7087 66.1899L20.2875 69.8101ZM28.8353 72.25V68H23.121V72.25H28.8353ZM25.9781 70.8571H27.5781V65.1429H25.9781V70.8571ZM30.6543 74.65L29.2963 77.1638L29.3083 77.1702L30.6543 74.65ZM29.2843 73.36L26.8239 74.8125L26.8343 74.8301L26.8449 74.8475L29.2843 73.36ZM29.2843 69.65L26.8369 68.1757L26.8317 68.1844L29.2843 69.65ZM30.6543 68.35L29.3083 65.8298L29.2963 65.8362L30.6543 68.35ZM35.9543 69.65L33.5069 71.1243L33.5109 71.1309L33.5149 71.1374L35.9543 69.65ZM35.9543 73.36L38.3937 74.8475L38.3977 74.8409L38.4017 74.8343L35.9543 73.36ZM34.5843 74.65L35.9423 77.1638L34.5843 74.65ZM33.7443 73.46L35.1403 75.9529L35.1591 75.9423L35.1778 75.9315L33.7443 73.46ZM34.5243 72.66L32.0406 71.2477L32.0301 71.2663L32.0198 71.285L34.5243 72.66ZM34.5243 70.34L32.0198 71.715L32.0301 71.7337L32.0406 71.7523L34.5243 70.34ZM33.7443 69.55L32.3108 72.0215L32.3295 72.0323L32.3483 72.0429L33.7443 69.55ZM31.5043 69.55L32.9003 72.0429L32.9191 72.0323L32.9378 72.0215L31.5043 69.55ZM30.7143 70.34L28.2306 68.9277L28.2201 68.9463L28.2098 68.965L30.7143 70.34ZM30.7143 72.66L28.2098 74.035L28.2201 74.0537L28.2306 74.0723L30.7143 72.66ZM31.5043 73.46L30.0708 75.9315L30.0895 75.9423L30.1083 75.9529L31.5043 73.46ZM32.6243 72.2629C32.3227 72.2629 32.1353 72.2019 32.0003 72.1298L29.3083 77.1702C30.3466 77.7248 31.4725 77.9771 32.6243 77.9771V72.2629ZM32.0123 72.1362C31.8635 72.0558 31.7857 71.9743 31.7237 71.8726L26.8449 74.8475C27.4495 75.8391 28.2851 76.6175 29.2963 77.1638L32.0123 72.1362ZM31.7447 71.9075C31.6957 71.8244 31.6514 71.7121 31.6514 71.5H25.9372C25.9372 72.6612 26.2196 73.7889 26.8239 74.8125L31.7447 71.9075ZM31.6514 71.5C31.6514 71.2876 31.6957 71.1846 31.7369 71.1156L26.8317 68.1844C26.2196 69.2087 25.9372 70.3391 25.9372 71.5H31.6514ZM31.7317 71.1243C31.7957 71.018 31.8722 70.9395 32.0123 70.8638L29.2963 65.8362C28.2764 66.3872 27.4395 67.1754 26.8369 68.1757L31.7317 71.1243ZM32.0003 70.8702C32.1353 70.7981 32.3227 70.7371 32.6243 70.7371V65.0229C31.4725 65.0229 30.3466 65.2752 29.3083 65.8298L32.0003 70.8702ZM32.6243 70.7371C32.9263 70.7371 33.1049 70.7982 33.2263 70.8638L35.9423 65.8362C34.9036 65.2751 33.7756 65.0229 32.6243 65.0229V70.7371ZM33.2263 70.8638C33.3664 70.9395 33.4429 71.018 33.5069 71.1243L38.4017 68.1757C37.7991 67.1754 36.9622 66.3872 35.9423 65.8362L33.2263 70.8638ZM33.5149 71.1374C33.5551 71.2035 33.5972 71.2986 33.5972 71.5H39.3114C39.3114 70.3281 39.0201 69.1898 38.3937 68.1625L33.5149 71.1374ZM33.5972 71.5C33.5972 71.7012 33.5551 71.8057 33.5069 71.8857L38.4017 74.8343C39.0202 73.8076 39.3114 72.6722 39.3114 71.5H33.5972ZM33.5149 71.8726C33.4529 71.9743 33.3751 72.0558 33.2263 72.1362L35.9423 77.1638C36.9535 76.6175 37.7891 75.8391 38.3937 74.8475L33.5149 71.8726ZM33.2263 72.1362C33.1049 72.2018 32.9263 72.2629 32.6243 72.2629V77.9771C33.7756 77.9771 34.9036 77.7249 35.9423 77.1638L33.2263 72.1362ZM32.6243 76.5971C33.4853 76.5971 34.3459 76.3977 35.1403 75.9529L32.3483 70.9671C32.4042 70.9358 32.4641 70.9125 32.5213 70.8982C32.5774 70.8842 32.6145 70.8829 32.6243 70.8829V76.5971ZM35.1778 75.9315C35.9644 75.4753 36.5934 74.8281 37.0288 74.035L32.0198 71.285C32.0455 71.2381 32.086 71.1795 32.1436 71.1204C32.2012 71.0613 32.2605 71.0177 32.3108 70.9885L35.1778 75.9315ZM37.008 74.0723C37.4718 73.2567 37.6714 72.3738 37.6714 71.5H31.9572C31.9572 71.5032 31.9569 71.4741 31.97 71.422C31.9834 71.3685 32.0066 71.3076 32.0406 71.2477L37.008 74.0723ZM37.6714 71.5C37.6714 70.6262 37.4718 69.7433 37.008 68.9277L32.0406 71.7523C32.0066 71.6924 31.9834 71.6315 31.97 71.578C31.9569 71.5259 31.9572 71.4968 31.9572 71.5H37.6714ZM37.0288 68.965C36.5888 68.1635 35.948 67.5094 35.1403 67.0571L32.3483 72.0429C32.2885 72.0094 32.2207 71.9603 32.1562 71.8949C32.0918 71.8297 32.0475 71.7654 32.0198 71.715L37.0288 68.965ZM35.1778 67.0785C34.3773 66.6142 33.5032 66.4029 32.6243 66.4029V72.1171C32.6066 72.1171 32.5615 72.1148 32.4981 72.0984C32.4336 72.0817 32.3689 72.0552 32.3108 72.0215L35.1778 67.0785ZM32.6243 66.4029C31.7453 66.4029 30.8713 66.6142 30.0708 67.0785L32.9378 72.0215C32.8797 72.0552 32.815 72.0817 32.7505 72.0984C32.6871 72.1148 32.642 72.1171 32.6243 72.1171V66.4029ZM30.1083 67.0571C29.3095 67.5044 28.6749 68.1465 28.2306 68.9277L33.198 71.7523C33.1745 71.7936 33.1353 71.8496 33.0771 71.9078C33.0186 71.9663 32.9565 72.0114 32.9003 72.0429L30.1083 67.0571ZM28.2098 68.965C27.7656 69.7739 27.5772 70.6433 27.5772 71.5H33.2914C33.2914 71.4892 33.2925 71.5106 33.2817 71.5554C33.2705 71.6017 33.2503 71.6576 33.2188 71.715L28.2098 68.965ZM27.5772 71.5C27.5772 72.3567 27.7656 73.2261 28.2098 74.035L33.2188 71.285C33.2503 71.3424 33.2705 71.3983 33.2817 71.4446C33.2925 71.4894 33.2914 71.5108 33.2914 71.5H27.5772ZM28.2306 74.0723C28.6701 74.8452 29.293 75.4804 30.0708 75.9315L32.9378 70.9885C32.9844 71.0155 33.0381 71.0551 33.0898 71.1074C33.1412 71.1596 33.1765 71.2099 33.198 71.2477L28.2306 74.0723ZM30.1083 75.9529C30.9027 76.3977 31.7633 76.5971 32.6243 76.5971V70.8829C32.6341 70.8829 32.6712 70.8842 32.7273 70.8982C32.7845 70.9125 32.8444 70.9358 32.9003 70.9671L30.1083 75.9529ZM44.1674 68L46.7895 69.135L48.5175 65.1429H44.1674V68ZM41.1374 75V77.8571H43.014L43.7595 76.135L41.1374 75ZM39.5374 75L36.914 76.1318L37.6584 77.8571H39.5374V75ZM36.5174 68V65.1429H32.1731L33.894 69.1318L36.5174 68ZM38.2674 68L40.896 66.8802L40.1559 65.1429H38.2674V68ZM40.3974 73L37.7689 74.1198L40.3791 80.247L43.0203 74.1331L40.3974 73ZM42.5574 68V65.1429H40.6794L39.9346 66.8669L42.5574 68ZM41.5454 66.865L38.5154 73.865L43.7595 76.135L46.7895 69.135L41.5454 66.865ZM41.1374 72.1429H39.5374V77.8571H41.1374V72.1429ZM42.1608 73.8682L39.1408 66.8682L33.894 69.1318L36.914 76.1318L42.1608 73.8682ZM36.5174 70.8571H38.2674V65.1429H36.5174V70.8571ZM35.6389 69.1198L37.7689 74.1198L43.026 71.8802L40.896 66.8802L35.6389 69.1198ZM43.0203 74.1331L45.1803 69.1331L39.9346 66.8669L37.7746 71.8669L43.0203 74.1331ZM42.5574 70.8571H44.1674V65.1429H42.5574V70.8571ZM49.1275 73.5L51.768 72.4086L51.0381 70.6429H49.1275V73.5ZM45.8775 73.5V70.6429H43.9669L43.237 72.4086L45.8775 73.5ZM45.2575 75V77.8571H47.1681L47.898 76.0914L45.2575 75ZM43.5975 75L40.9878 73.8368L39.1959 77.8571H43.5975V75ZM46.7175 68V65.1429H44.8629L44.1078 66.8368L46.7175 68ZM48.3175 68L50.9258 66.8337L50.1697 65.1429H48.3175V68ZM51.4475 75V77.8571H55.8548L54.0558 73.8337L51.4475 75ZM49.7475 75L47.107 76.0914L47.8369 77.8571H49.7475V75ZM48.6175 72.27V75.1271H52.8934L51.2572 71.1767L48.6175 72.27ZM47.5075 69.59L50.1472 68.4967L47.5075 62.1234L44.8678 68.4967L47.5075 69.59ZM46.3975 72.27L43.7578 71.1767L42.1216 75.1271H46.3975V72.27ZM49.1275 70.6429H45.8775V76.3571H49.1275V70.6429ZM43.237 72.4086L42.617 73.9086L47.898 76.0914L48.518 74.5914L43.237 72.4086ZM45.2575 72.1429H43.5975V77.8571H45.2575V72.1429ZM46.2072 76.1632L49.3272 69.1632L44.1078 66.8368L40.9878 73.8368L46.2072 76.1632ZM46.7175 70.8571H48.3175V65.1429H46.7175V70.8571ZM45.7092 69.1663L48.8392 76.1663L54.0558 73.8337L50.9258 66.8337L45.7092 69.1663ZM51.4475 72.1429H49.7475V77.8571H51.4475V72.1429ZM52.388 73.9086L51.768 72.4086L46.487 74.5914L47.107 76.0914L52.388 73.9086ZM51.2572 71.1767L50.1472 68.4967L44.8678 70.6833L45.9778 73.3633L51.2572 71.1767ZM44.8678 68.4967L43.7578 71.1767L49.0372 73.3633L50.1472 70.6833L44.8678 68.4967ZM46.3975 75.1271H48.6175V69.4129H46.3975V75.1271ZM57.3138 71.36L55.9902 68.8279L49.9025 72.0101L56.4512 74.0838L57.3138 71.36ZM58.2537 72L55.9741 73.7224L55.9835 73.7347L55.9929 73.747L58.2537 72ZM57.8737 74.51L59.4966 76.8615L59.5035 76.8568L57.8737 74.51ZM52.1738 75H49.3166V77.8571H52.1738V75ZM52.1738 68V65.1429H49.3166V68H52.1738ZM57.5537 68.49L55.8834 70.808L55.8914 70.8138L55.8995 70.8195L57.5537 68.49ZM57.9938 70.73L55.5709 69.2157L55.5571 69.2377L55.5438 69.26L57.9938 70.73ZM53.7837 69.22V66.3629H50.9266V69.22H53.7837ZM53.7837 70.87H50.9266V73.7271H53.7837V70.87ZM56.3037 69.43L54.7013 71.7955L54.7279 71.8135L54.7548 71.8308L56.3037 69.43ZM56.6338 73.57L55.0998 71.1595L55.0829 71.1703L55.0662 71.1813L56.6338 73.57ZM53.7837 72.05V69.1929H50.9266V72.05H53.7837ZM53.7837 73.78H50.9266V76.6371H53.7837V73.78ZM56.4512 74.0838C56.4144 74.0722 56.3367 74.042 56.2408 73.9767C56.1424 73.9097 56.0499 73.8227 55.9741 73.7224L60.5334 70.2776C59.9087 69.4508 59.0727 68.92 58.1763 68.6362L56.4512 74.0838ZM55.9929 73.747C55.8931 73.6178 55.8229 73.4769 55.7812 73.3433C55.741 73.2144 55.7366 73.1226 55.7366 73.09H61.4509C61.4509 72.1355 61.1907 71.128 60.5146 70.253L55.9929 73.747ZM55.7366 73.09C55.7366 73.0177 55.7529 72.8348 55.8655 72.6129C55.9806 72.3858 56.1354 72.2387 56.244 72.1632L59.5035 76.8568C60.7964 75.9589 61.4509 74.5844 61.4509 73.09H55.7366ZM56.2509 72.1585C56.3679 72.0777 56.4236 72.0776 56.3436 72.0965C56.262 72.1157 56.0883 72.1429 55.7938 72.1429V77.8571C56.973 77.8571 58.3405 77.6594 59.4966 76.8615L56.2509 72.1585ZM55.7938 72.1429H52.1738V77.8571H55.7938V72.1429ZM55.0309 75V68H49.3166V75H55.0309ZM52.1738 70.8571H55.5938V65.1429H52.1738V70.8571ZM55.5938 70.8571C55.8458 70.8571 55.9816 70.882 56.0308 70.8943C56.0762 70.9057 56.0044 70.8952 55.8834 70.808L59.2241 66.172C58.0889 65.354 56.7497 65.1429 55.5938 65.1429V70.8571ZM55.8995 70.8195C55.8076 70.7543 55.6551 70.6145 55.5351 70.3832C55.4147 70.1513 55.3866 69.9417 55.3866 69.82H61.1009C61.1009 68.3263 60.4159 67.0182 59.208 66.1605L55.8995 70.8195ZM55.3866 69.82C55.3866 69.7548 55.3949 69.6596 55.4262 69.5456C55.4579 69.4301 55.5073 69.3175 55.5709 69.2157L60.4166 72.2443C60.8901 71.4867 61.1009 70.6503 61.1009 69.82H55.3866ZM55.5438 69.26C55.6018 69.1632 55.6759 69.0714 55.762 68.9916C55.8472 68.9127 55.9282 68.8603 55.9902 68.8279L58.6373 73.8921C59.3655 73.5115 59.9956 72.9469 60.4437 72.2L55.5438 69.26ZM50.9266 69.22V70.87H56.6409V69.22H50.9266ZM53.7837 73.7271H55.3937V68.0129H53.7837V73.7271ZM55.3937 73.7271C56.0501 73.7271 57.0198 73.6259 57.9062 73.0255L54.7013 68.2945C54.9516 68.125 55.1691 68.0588 55.2788 68.0335C55.3876 68.0084 55.4354 68.0129 55.3937 68.0129V73.7271ZM57.9062 73.0255C58.9814 72.2971 59.4709 71.1551 59.4709 70.04H53.7566C53.7566 69.8138 53.8009 69.482 53.9807 69.1222C54.1657 68.7524 54.4325 68.4766 54.7013 68.2945L57.9062 73.0255ZM59.4709 70.04C59.4709 68.9241 58.9768 67.7544 57.8527 67.0292L54.7548 71.8308C54.4678 71.6457 54.1843 71.361 53.9892 70.9769C53.8004 70.6055 53.7566 70.2647 53.7566 70.04H59.4709ZM57.9062 67.0645C57.0198 66.4641 56.0501 66.3629 55.3937 66.3629V72.0771C55.4354 72.0771 55.3876 72.0816 55.2788 72.0565C55.1691 72.0312 54.9516 71.965 54.7013 71.7955L57.9062 67.0645ZM55.3937 66.3629H53.7837V72.0771H55.3937V66.3629ZM55.6738 76.6371C56.322 76.6371 57.3045 76.5473 58.2013 75.9587L55.0662 71.1813C55.321 71.0141 55.5345 70.9558 55.6232 70.9364C55.7134 70.9166 55.7398 70.9229 55.6738 70.9229V76.6371ZM58.1677 75.9805C59.3266 75.243 59.8209 74.0459 59.8209 72.92H54.1066C54.1066 72.7093 54.1472 72.3763 54.3336 72.0091C54.5273 71.6276 54.8107 71.3435 55.0998 71.1595L58.1677 75.9805ZM59.8209 72.92C59.8209 71.8117 59.3445 70.6444 58.2388 69.8987C57.3334 69.2881 56.3352 69.1929 55.6738 69.1929V74.9071C55.8723 74.9071 55.5191 74.9569 55.0437 74.6363C54.7689 74.4509 54.5032 74.1724 54.3218 73.8053C54.1465 73.4508 54.1066 73.1292 54.1066 72.92H59.8209ZM55.6738 69.1929H53.7837V74.9071H55.6738V69.1929ZM50.9266 72.05V73.78H56.6409V72.05H50.9266ZM53.7837 76.6371H55.6738V70.9229H53.7837V76.6371ZM59.8202 68V65.1429H56.9631V68H59.8202ZM61.4402 68H64.2974V65.1429H61.4402V68ZM61.4402 73.68H58.5831V76.5371H61.4402V73.68ZM64.9502 73.68H67.8074V70.8229H64.9502V73.68ZM64.9502 75V77.8571H67.8074V75H64.9502ZM59.8202 75H56.9631V77.8571H59.8202V75ZM59.8202 70.8571H61.4402V65.1429H59.8202V70.8571ZM58.5831 68V73.68H64.2974V68H58.5831ZM61.4402 76.5371H64.9502V70.8229H61.4402V76.5371ZM62.0931 73.68V75H67.8074V73.68H62.0931ZM64.9502 72.1429H59.8202V77.8571H64.9502V72.1429ZM62.6774 75V68H56.9631V75H62.6774ZM71.2754 73.7H74.1325V70.8429H71.2754V73.7ZM71.2754 75V77.8571H74.1325V75H71.2754ZM65.8554 75H62.9982V77.8571H65.8554V75ZM65.8554 68V65.1429H62.9982V68H65.8554ZM71.1454 68H74.0025V65.1429H71.1454V68ZM71.1454 69.3V72.1571H74.0025V69.3H71.1454ZM67.4654 69.3V66.4429H64.6082V69.3H67.4654ZM67.4654 70.82H64.6082V73.6771H67.4654V70.82ZM70.7154 70.82H73.5725V67.9629H70.7154V70.82ZM70.7154 72.08V74.9371H73.5725V72.08H70.7154ZM67.4654 72.08V69.2229H64.6082V72.08H67.4654ZM67.4654 73.7H64.6082V76.5571H67.4654V73.7ZM68.4182 73.7V75H74.1325V73.7H68.4182ZM71.2754 72.1429H65.8554V77.8571H71.2754V72.1429ZM68.7125 75V68H62.9982V75H68.7125ZM65.8554 70.8571H71.1454V65.1429H65.8554V70.8571ZM68.2882 68V69.3H74.0025V68H68.2882ZM71.1454 66.4429H67.4654V72.1571H71.1454V66.4429ZM64.6082 69.3V70.82H70.3225V69.3H64.6082ZM67.4654 73.6771H70.7154V67.9629H67.4654V73.6771ZM67.8582 70.82V72.08H73.5725V70.82H67.8582ZM70.7154 69.2229H67.4654V74.9371H70.7154V69.2229ZM64.6082 72.08V73.7H70.3225V72.08H64.6082ZM67.4654 76.5571H71.2754V70.8429H67.4654V76.5571Z" fill="white"/>
<rect width="79" height="21" transform="translate(0 42)" fill="#C2D500"/>
<path d="M15 56.18V58H7.412V48.2H14.818V50.02H9.666V52.148H14.216V53.912H9.666V56.18H15ZM25.7926 48.2V58H23.9306L19.0446 52.05V58H16.8046V48.2H18.6806L23.5526 54.15V48.2H25.7926ZM35.6992 56.18V58H28.1112V48.2H35.5172V50.02H30.3652V52.148H34.9152V53.912H30.3652V56.18H35.6992ZM43.7478 58L41.8578 55.27H41.7458H39.7718V58H37.5038V48.2H41.7458C42.6138 48.2 43.3651 48.3447 43.9998 48.634C44.6438 48.9233 45.1385 49.334 45.4838 49.866C45.8291 50.398 46.0018 51.028 46.0018 51.756C46.0018 52.484 45.8245 53.114 45.4698 53.646C45.1245 54.1687 44.6298 54.57 43.9858 54.85L46.1838 58H43.7478ZM43.7058 51.756C43.7058 51.2053 43.5285 50.7853 43.1738 50.496C42.8191 50.1973 42.3011 50.048 41.6198 50.048H39.7718V53.464H41.6198C42.3011 53.464 42.8191 53.3147 43.1738 53.016C43.5285 52.7173 43.7058 52.2973 43.7058 51.756ZM54.4207 52.946H56.4927V56.922C55.9607 57.3233 55.3447 57.6313 54.6447 57.846C53.9447 58.0607 53.2401 58.168 52.5307 58.168C51.5134 58.168 50.5987 57.9533 49.7867 57.524C48.9747 57.0853 48.3354 56.4833 47.8687 55.718C47.4114 54.9433 47.1827 54.0707 47.1827 53.1C47.1827 52.1293 47.4114 51.2613 47.8687 50.496C48.3354 49.7213 48.9794 49.1193 49.8007 48.69C50.6221 48.2513 51.5461 48.032 52.5727 48.032C53.4314 48.032 54.2107 48.1767 54.9107 48.466C55.6107 48.7553 56.1987 49.1753 56.6747 49.726L55.2187 51.07C54.5187 50.3327 53.6741 49.964 52.6847 49.964C52.0594 49.964 51.5041 50.0947 51.0187 50.356C50.5334 50.6173 50.1554 50.986 49.8847 51.462C49.6141 51.938 49.4787 52.484 49.4787 53.1C49.4787 53.7067 49.6141 54.248 49.8847 54.724C50.1554 55.2 50.5287 55.5733 51.0047 55.844C51.4901 56.1053 52.0407 56.236 52.6567 56.236C53.3101 56.236 53.8981 56.096 54.4207 55.816V52.946ZM58.5995 48.2H60.8675V58H58.5995V48.2ZM60.3495 45.386H62.7015L60.1675 47.402H58.4595L60.3495 45.386ZM69.6473 55.9H65.0973L64.2293 58H61.9052L66.2733 48.2H68.5133L72.8953 58H70.5153L69.6473 55.9ZM68.9333 54.178L67.3793 50.426L65.8253 54.178H68.9333Z" fill="#4A5A0D"/>
<rect x="26" width="27" height="27" rx="13.5" fill="white"/>
<path d="M40.1073 11.3768C37.8267 12.6528 37.844 16.9906 38.1377 19C41.144 19 44.3058 18.742 46.5347 16.8186C48.3177 15.2799 48.107 11.6426 47.7787 10.0164C46.1718 9.93818 42.388 10.1008 40.1073 11.3768Z" fill="#4C9C2E"/>
<path d="M31.0211 12.0093C35.1416 11.8894 37.3907 12.9589 38.0002 13.5087C36.5838 16.3361 37.9637 18.4143 37.5002 18.5C37.0366 18.5857 34.5002 19 32.5663 17.2358C31.2669 16.0503 30.9267 13.3445 31.0211 12.0093Z" fill="#C2D500"/>
<path fill-rule="evenodd" clip-rule="evenodd" d="M38.6609 2.01395C38.5818 2.02509 38.3122 2.05725 38.0617 2.08542C35.6245 2.35928 33.193 3.55318 31.3725 5.36997C29.7491 6.99003 28.6799 8.97691 28.2346 11.2015C28.0348 12.1993 27.9756 12.9025 28.0086 13.888C28.0403 14.8364 28.1192 15.4174 28.3344 16.289C28.5698 17.2425 29.1154 18.6435 29.2494 18.6385C29.2838 18.6372 29.4447 18.567 29.607 18.4825L29.9019 18.3289L29.6946 17.8689C29.3178 17.0328 29.0201 15.9936 28.8501 14.9212C28.7557 14.3257 28.7687 12.6379 28.8729 11.9711C29.3583 8.86192 30.9956 6.28022 33.5757 4.55529C36.7406 2.43944 40.8101 2.18031 44.2256 3.87716C44.6193 4.07279 45.1141 4.34569 45.325 4.48363C45.8179 4.80588 46.4996 5.33719 46.4996 5.39915C46.4996 5.4255 46.3055 5.65113 46.0682 5.90052C45.592 6.40088 45.5437 6.52941 45.7445 6.76075C45.8452 6.87671 45.95 6.90143 47.3096 7.13022C48.876 7.39382 48.9539 7.39516 49.0851 7.16118C49.1515 7.04273 49.1333 6.93243 48.8237 5.57799C48.4599 3.98582 48.4265 3.90643 48.1199 3.90571C47.983 3.90543 47.9027 3.96657 47.5176 4.36489L47.0732 4.8244L46.7066 4.52913C45.128 3.25782 43.2331 2.43089 41.154 2.10601C40.6983 2.03478 38.967 1.9709 38.6609 2.01395ZM47.3491 5.66688C47.0647 5.97261 46.841 6.2316 46.8518 6.24249C46.875 6.26567 48.196 6.49327 48.2135 6.47705C48.2366 6.45574 47.9213 5.10604 47.8938 5.10849C47.8785 5.10988 47.6334 5.36114 47.3491 5.66688ZM49.3932 8.52806L49.0985 8.68169L49.312 9.16165C49.7076 10.0511 50.0042 11.101 50.1525 12.1374C50.2442 12.7785 50.2305 14.3676 50.1276 15.0311C49.4389 19.4705 46.2588 22.9434 41.945 23.967C40.7853 24.2422 39.1439 24.3158 38.0137 24.1434C36.1279 23.8557 34.3846 23.1195 32.9365 21.9991C32.6966 21.8135 32.5002 21.6395 32.5002 21.6125C32.5002 21.5855 32.6944 21.3594 32.9317 21.11C33.4079 20.6097 33.4562 20.4812 33.2554 20.2498C33.1547 20.1339 33.0499 20.1091 31.6902 19.8803C30.1239 19.6167 30.046 19.6154 29.9148 19.8494C29.8484 19.9678 29.8666 20.0781 30.1762 21.4326C30.5416 23.0316 30.5725 23.1045 30.8863 23.1045C31.0314 23.1045 31.1018 23.0508 31.4889 22.6455L31.9272 22.1865L32.2976 22.486C33.8661 23.7538 35.799 24.5883 37.9178 24.9124C38.6809 25.0292 40.3181 25.0292 41.0821 24.9126C42.3667 24.7164 43.4628 24.3738 44.5819 23.8188C47.4485 22.3972 49.4935 20.0112 50.4723 16.9463C51.1207 14.9155 51.1735 12.6247 50.6199 10.5378C50.3799 9.63326 49.872 8.36756 49.7508 8.37207C49.7162 8.37332 49.5553 8.44354 49.3932 8.52806ZM44.1984 8.85136C41.6628 9.01387 39.7121 9.91807 38.6624 11.4175C38.5331 11.6022 38.4218 11.7611 38.4152 11.7704C38.4086 11.7798 38.2234 11.6567 38.0036 11.4968C37.1259 10.8585 36.0816 10.4578 34.7331 10.2421C34.1807 10.1538 33.0245 10.1017 32.4618 10.1399C31.9647 10.1736 31.9096 10.1871 31.7934 10.3034C31.6681 10.4288 31.6666 10.4386 31.646 11.2696C31.563 14.6287 32.7124 17.0041 34.9531 18.1037C36.2099 18.7205 37.3382 18.9333 39.339 18.9309C40.9942 18.929 41.986 18.7921 43.0673 18.4161C45.4407 17.591 46.7434 15.9233 47.2223 13.0973C47.3518 12.333 47.3971 10.8254 47.3166 9.95555C47.2495 9.22937 47.2212 9.1246 47.0651 9.02333C46.8491 8.88323 45.2232 8.7857 44.1984 8.85136ZM44.0306 9.64723C40.9426 9.96971 39.2915 11.099 38.5202 13.4162C38.1864 14.4188 38.0626 15.299 38.062 16.6728L38.0617 17.6086L40.6154 15.0523L43.1693 12.496L43.4435 12.7734L43.7177 13.0509L41.2041 15.5669C39.8216 16.9508 38.7031 18.1035 38.7185 18.1284C38.7609 18.197 40.7379 18.1314 41.2978 18.0429C44.826 17.4848 46.4171 15.5237 46.5758 11.5374C46.6028 10.8583 46.5461 9.74403 46.4811 9.67905C46.4488 9.6467 44.3023 9.61886 44.0306 9.64723ZM32.4221 10.9844C32.3721 11.1148 32.4401 12.5122 32.5238 13.0741C32.7266 14.4362 33.2116 15.6113 33.8666 16.328C34.4184 16.9317 35.2858 17.4738 36.1679 17.7663C36.5817 17.9035 37.2786 18.0539 37.3102 18.0126C37.3185 18.0018 37.3095 17.7985 37.2902 17.5609C37.2708 17.3234 37.2531 16.9452 37.2508 16.7207L37.2466 16.3124L35.9522 15.0172C35.2402 14.3048 34.6577 13.6994 34.6577 13.672C34.6577 13.6445 34.7714 13.5096 34.9103 13.3722L35.163 13.1224L36.2164 14.1778C36.7958 14.7582 37.2861 15.2331 37.3061 15.2331C37.3262 15.2331 37.3425 15.182 37.3425 15.1194C37.3425 14.7217 37.6315 13.5185 37.8785 12.8882C37.9932 12.5952 38.0063 12.5223 37.9554 12.4607C37.7994 12.2724 37.2228 11.889 36.7432 11.6547C35.7797 11.1839 34.7769 10.9686 33.3523 10.9266C32.5258 10.9022 32.4519 10.9068 32.4221 10.9844ZM30.7878 20.6154C30.8024 20.6777 30.8742 20.9937 30.9473 21.3176C31.0204 21.6415 31.0947 21.9006 31.1125 21.8935C31.175 21.8684 32.1706 20.7907 32.1502 20.7702C32.1388 20.7588 31.8839 20.7074 31.5837 20.656C31.2835 20.6046 30.9757 20.5489 30.8996 20.5324C30.7731 20.5048 30.7636 20.5119 30.7878 20.6154Z" fill="#4A5A0D"/>
</svg>
