<svg width="53" height="40" viewBox="0 0 53 40" fill="none" xmlns="http://www.w3.org/2000/svg">
<path d="M5.86453 16.0414C4.1025 18.3258 1.82774 20.6889 1.30432 23.6236C0.902863 25.8744 0.3701 30.5303 3.57093 30.9921C9.39441 31.8324 15.2169 22.177 16.2262 17.4564C16.486 16.2412 17.3532 11.8943 15.8754 11.1024C13.3674 9.75823 9.89224 12.1535 8.374 13.9323C6.30402 16.3576 1.49194 28.4229 7.48355 29.0966C13.291 29.7495 19.2484 21.4849 20.7055 16.6288C20.9631 15.7701 20.9253 13.1903 19.9499 15.3473C18.6503 18.2216 17.8554 21.7203 17.6294 24.8517C17.4453 27.401 18.2419 29.1 20.2737 26.4535C23.4554 22.3093 25.9012 17.2683 27.7212 12.4106C29.0346 8.90493 32.7315 -1.53951 30.6354 1.5713C28.8973 4.1509 28.3865 9.45501 27.7212 12.4106C26.5227 17.7352 26.2641 22.9391 26.2641 28.3758C26.2641 28.4876 26.0545 37.1106 27.3164 34.8633C30.0311 30.0286 31.057 23.5406 32.0655 18.1772C32.6723 14.9507 33.2058 11.7175 33.9274 8.51269C34.181 7.38659 34.4211 4.96912 35.1956 3.94739C35.8271 3.1144 35.3242 6.04121 35.1687 7.07102C34.6844 10.2773 33.9269 13.4473 33.3068 16.6288C32.0199 23.2307 29.7532 30.9783 30.3116 37.7466C30.3971 38.783 31.9714 36.366 32.4163 35.4239C33.9645 32.1464 35.2095 28.7346 36.6527 25.4123C37.7037 22.9931 39.5132 17.1068 41.9685 15.5609C44.4402 14.0046 40.306 21.1383 39.1083 23.7838C37.9607 26.3184 36.8175 28.8399 35.8432 31.446C35.4732 32.4359 34.0633 34.8905 35.0607 34.5162C36.2842 34.0571 37.9638 31.0322 38.5416 30.2179C40.5723 27.3563 42.5448 24.4503 44.505 21.5412C46.1767 19.06 51.1695 11.608 49.6318 14.1726C47.1849 18.2538 44.085 21.8271 41.9685 26.1332C40.4307 29.262 41.0204 29.9111 43.9113 27.5748C46.3412 25.6111 48.6634 21.5612 51.5746 20.3131C53.1265 19.6477 50.0002 23.2797 49.0922 24.6915" stroke="black" stroke-width="2" stroke-linecap="round"/>
</svg>
